<?xml version="1.0" encoding="UTF-8"?>
<svg width="40px" height="40px" viewBox="0 0 40 40" version="1.1" xmlns="http://www.w3.org/2000/svg" xmlns:xlink="http://www.w3.org/1999/xlink">
    <!-- Generator: Sketch 51.3 (57544) - http://www.bohemiancoding.com/sketch -->
    <title>ic-insta-footer</title>
    <desc>Created with Sketch.</desc>
    <defs></defs>
    <g id="ic-insta-footer" stroke="none" stroke-width="1" fill="none" fill-rule="evenodd">
        <g id="insta-footer">
            <rect id="Rectangle-7-Copy" fill="#000000" fill-rule="evenodd" opacity="0.100000001" x="0" y="0" width="40" height="40" rx="9"></rect>
            <polygon id="Clip-2-Copy" points="8 8 31.9924048 8 31.9924048 31.9924238 8 31.9924238"></polygon>
            <path d="M19.9961905,8 C16.7382381,8 16.3296667,8.01380952 15.0501905,8.07219048 C13.7732857,8.13042857 12.9012857,8.3332381 12.1381905,8.62980952 C11.349381,8.93633333 10.6803333,9.34652381 10.0134286,10.0134286 C9.34647619,10.680381 8.93633333,11.349381 8.6297619,12.1381905 C8.33319048,12.9012857 8.13042857,13.7732857 8.07214286,15.0501905 C8.0137619,16.3297143 8,16.7381905 8,19.9961905 C8,23.2541905 8.0137619,23.6627143 8.07214286,24.9422381 C8.13042857,26.2190952 8.33319048,27.0911429 8.6297619,27.8541905 C8.93633333,28.643 9.34647619,29.3120476 10.0134286,29.9789524 C10.6803333,30.6459048 11.349381,31.0560476 12.1381905,31.3626667 C12.9012857,31.6591905 13.7732857,31.862 15.0501905,31.9202857 C16.3296667,31.978619 16.7382381,31.9924286 19.9961905,31.9924286 C23.2541905,31.9924286 23.6626667,31.978619 24.9421905,31.9202857 C26.2190952,31.862 27.0910952,31.6591905 27.8541905,31.3626667 C28.6430476,31.0560476 29.3120476,30.6459048 29.9789524,29.9789524 C30.6459048,29.3120476 31.0560476,28.6430476 31.362619,27.8541905 C31.6591905,27.0911429 31.862,26.2190952 31.9202381,24.9422381 C31.978619,23.6627143 31.9924286,23.2541905 31.9924286,19.9961905 C31.9924286,16.7382381 31.978619,16.3297143 31.9202381,15.0501905 C31.862,13.7732857 31.6591905,12.9012857 31.362619,12.1381905 C31.0560476,11.349381 30.6459048,10.680381 29.9789524,10.0134286 C29.3120476,9.34652381 28.6430476,8.93633333 27.8541905,8.62980952 C27.0910952,8.3332381 26.2190952,8.13042857 24.9421905,8.07219048 C23.6626667,8.01380952 23.2541905,8 19.9961905,8 M19.9961905,10.1614762 C23.1993333,10.1614762 23.5787143,10.1736667 24.8436667,10.231381 C26.0132857,10.2847619 26.6484762,10.4801905 27.0711905,10.6444762 C27.6311429,10.8620952 28.0308095,11.1220476 28.4505714,11.5418095 C28.8703333,11.961619 29.1302857,12.3612381 29.3479524,12.9211905 C29.5121905,13.3439048 29.707619,13.9790952 29.761,15.1487143 C29.8186667,16.4136667 29.8309048,16.7930952 29.8309048,19.9961905 C29.8309048,23.1993333 29.8186667,23.5787619 29.761,24.8436667 C29.707619,26.0133333 29.5121905,26.6485238 29.3479524,27.0712381 C29.1302857,27.6311429 28.8703333,28.0308095 28.4505714,28.4505714 C28.0308095,28.870381 27.6311429,29.1303333 27.0711905,29.3479524 C26.6484762,29.5121905 26.0132857,29.7076667 24.8436667,29.761 C23.5789048,29.8187143 23.1995714,29.8309524 19.9961905,29.8309524 C16.7928095,29.8309524 16.4134762,29.8187143 15.1487143,29.761 C13.9790952,29.7076667 13.3438571,29.5121905 12.9211429,29.3479524 C12.3612381,29.1303333 11.9615714,28.870381 11.5418095,28.4505714 C11.1220476,28.0308095 10.8620476,27.6311429 10.6444286,27.0712381 C10.4801905,26.6485238 10.2847619,26.0133333 10.231381,24.8437143 C10.1736667,23.5787619 10.1614762,23.1993333 10.1614762,19.9961905 C10.1614762,16.7930952 10.1736667,16.4136667 10.231381,15.1487143 C10.2847619,13.9790952 10.4801905,13.3439048 10.6444286,12.9211905 C10.8620476,12.3612381 11.1220476,11.961619 11.5418095,11.5418571 C11.9615714,11.1220476 12.3612381,10.8620952 12.9211429,10.6444762 C13.3438571,10.4801905 13.9790952,10.2847619 15.1486667,10.231381 C16.4136667,10.1736667 16.7930476,10.1614762 19.9961905,10.1614762" id="Fill-1-Copy" fill="#000000" fill-rule="evenodd"></path>
            <path d="M20.1602381,24.1589524 C17.9518095,24.1589524 16.1614762,22.368619 16.1614762,20.1601905 C16.1614762,17.9517619 17.9518095,16.1614762 20.1602381,16.1614762 C22.3686667,16.1614762 24.159,17.9517619 24.159,20.1601905 C24.159,22.368619 22.3686667,24.1589524 20.1602381,24.1589524 M20.1602381,14 C16.7580476,14 14,16.758 14,20.1601905 C14,23.5624286 16.7580476,26.3204286 20.1602381,26.3204286 C23.5624286,26.3204286 26.3204286,23.5624286 26.3204286,20.1601905 C26.3204286,16.758 23.5624286,14 20.1602381,14" id="Fill-4-Copy" fill="#000000" fill-rule="evenodd"></path>
            <path d="M27.8790952,13.4395238 C27.8790952,14.2345714 27.234619,14.8790476 26.4395714,14.8790476 C25.6445238,14.8790476 25,14.2345714 25,13.4395238 C25,12.6444762 25.6445238,12 26.4395714,12 C27.234619,12 27.8790952,12.6444762 27.8790952,13.4395238" id="Fill-6-Copy" fill="#000000" fill-rule="evenodd"></path>
        </g>
    </g>
</svg>