<?xml version="1.0" encoding="UTF-8"?>
<svg width="40px" height="40px" viewBox="0 0 40 40" version="1.1" xmlns="http://www.w3.org/2000/svg" xmlns:xlink="http://www.w3.org/1999/xlink">
    <!-- Generator: Sketch 51.3 (57544) - http://www.bohemiancoding.com/sketch -->
    <title>ic-twitter-footer</title>
    <desc>Created with Sketch.</desc>
    <defs></defs>
    <g id="ic-twitter-footer" stroke="none" stroke-width="1" fill="none" fill-rule="evenodd">
        <g id="twitter-footer" fill="#000000">
            <rect id="Rectangle-7" opacity="0.100000001" x="0" y="0" width="40" height="40" rx="9"></rect>
            <path d="M20.9161497,16.9835021 L20.9559822,17.631154 L20.29274,17.5519134 C17.8781339,17.2480536 15.7682777,16.2166772 13.9770813,14.4852378 L13.1013993,13.6260695 L12.875682,14.2606186 C12.3983247,15.6750954 12.7037069,17.1688129 13.698254,18.1733597 C14.2293536,18.7280443 14.1098562,18.8079089 13.1943417,18.4772196 C12.875682,18.3711494 12.597487,18.2919087 12.570932,18.331841 C12.4779896,18.4241845 12.7966493,19.6271449 13.0482893,20.1032128 C13.393504,20.7639675 14.0965787,21.4116194 14.8660407,21.7947199 L15.5160054,22.0992036 L14.7465434,22.1123064 C14.0036363,22.1123064 13.9770813,22.1254092 14.0567462,22.4030635 C14.322296,23.2622318 15.3705853,24.1744352 16.5377398,24.5706384 L17.3603118,24.8482927 L16.6439597,25.2713254 C15.5823929,25.879669 14.3355735,26.2228372 13.0881218,26.2496667 C12.4912671,26.2627695 12,26.3158046 12,26.3551129 C12,26.4873887 13.6192213,27.227384 14.5606585,27.518765 C17.3868668,28.3779333 20.7435424,28.0073117 23.2643684,26.5404237 C25.0555648,25.4959446 26.8467613,23.4207131 27.6826108,21.4116194 C28.1334132,20.3409347 28.5848478,18.3848761 28.5848478,17.4464672 C28.5848478,16.8381236 28.6246802,16.7588829 29.3675873,16.0319903 C29.8057445,15.6089576 30.2167143,15.1459925 30.2963793,15.0137168 C30.4291542,14.762892 30.4158767,14.762892 29.739357,14.9875112 C28.6114027,15.3843384 28.4520729,15.3313033 29.0090951,14.7366865 C29.4206973,14.3136537 29.9113321,13.5468288 29.9113321,13.3222097 C29.9113321,13.2822774 29.712802,13.3484152 29.4870847,13.4675882 C29.2480899,13.5998639 28.7176226,13.7976536 28.319298,13.9168265 L27.6029459,14.1414457 L26.9529812,13.7053101 C26.594489,13.4675882 26.0905767,13.2030367 25.8250269,13.1237961 C25.1485073,12.9384852 24.1134954,12.9653148 23.5033632,13.1768311 C21.8449417,13.771448 20.7966523,15.3050978 20.9161497,16.9835021" id="Fill-1-Copy-8"></path>
        </g>
    </g>
</svg>