<svg width="24" height="24" fill="none" xmlns="http://www.w3.org/2000/svg"><path fill-rule="evenodd" clip-rule="evenodd" d="M19.865 18.52l-3.849-3.937a6.22 6.22 0 001.022-3.428c0-3.394-2.7-6.155-6.019-6.155S5 7.761 5 11.155c0 3.395 2.7 6.156 6.02 6.156 1.41 0 2.705-.502 3.732-1.336l3.8 3.887c.18.184.476.184.656 0l.657-.671a.485.485 0 000-.672zM6.857 11.154c0-2.35 1.864-4.256 4.162-4.256 2.299 0 4.162 1.906 4.162 4.256a4.29 4.29 0 01-1.06 2.832l-.329.336a4.089 4.089 0 01-2.773 1.089c-2.298 0-4.162-1.906-4.162-4.257z" fill="#86A9FF"/></svg>