<svg width="24" height="24" fill="none" xmlns="http://www.w3.org/2000/svg"><path fill-rule="evenodd" clip-rule="evenodd" d="M15.863 14.092l4.145 4.146.001-.001a.502.502 0 010 .707l-.707.707a.502.502 0 01-.707 0l-4.093-4.093a6.451 6.451 0 01-4.02 1.406A6.489 6.489 0 014 10.482 6.489 6.489 0 0110.482 4a6.489 6.489 0 016.482 6.482 6.454 6.454 0 01-1.101 3.61zm-5.382-8.091a4.482 4.482 0 00-4.482 4.482l-.002.001a4.482 4.482 0 004.482 4.482 4.46 4.46 0 002.986-1.146l.001-.001.354-.354a4.457 4.457 0 001.143-2.982 4.482 4.482 0 00-4.482-4.482z" fill="#6A6A78"/></svg>