<svg width="24" height="24" viewBox="0 0 24 24" fill="none" xmlns="http://www.w3.org/2000/svg">
<path fill-rule="evenodd" clip-rule="evenodd" d="M15.863 14.092L20.008 18.238L20.009 18.237C20.203 18.431 20.203 18.75 20.009 18.944L19.302 19.651C19.107 19.845 18.789 19.845 18.595 19.651L14.502 15.558C13.396 16.435 12 16.964 10.482 16.964C6.908 16.964 4 14.057 4 10.482C4 6.908 6.907 4 10.482 4C14.056 4 16.964 6.907 16.964 10.482C16.964 11.817 16.557 13.059 15.863 14.092ZM10.481 6.001C8.006 6.001 5.999 8.007 5.999 10.483L5.997 10.484C5.997 12.959 8.003 14.966 10.479 14.966C11.628 14.966 12.672 14.53 13.465 13.82L13.466 13.819L13.82 13.465C14.529 12.673 14.963 11.629 14.963 10.483C14.963 8.008 12.957 6.001 10.481 6.001Z" fill="#FFFFFF"/>
</svg>
