<svg width="24" height="24" viewBox="0 0 24 24" fill="none" xmlns="http://www.w3.org/2000/svg">
<path fill-rule="evenodd" clip-rule="evenodd" d="M22.6754 0H1.32462C0.593062 0 0 0.593062 0 1.32462V22.6754C0 23.4069 0.592898 24 1.32473 24H12.8203V14.7188H9.70312V11.0859H12.8203V8.41474C12.8203 5.31485 14.7134 3.62688 17.4787 3.62688C18.8032 3.62688 19.9416 3.72551 20.2734 3.76959V7.00781L18.3606 7.00868C16.8607 7.00868 16.5703 7.72334 16.5703 8.77202V11.0859H20.1677L19.6992 14.7188H16.5703V24H22.6754C23.407 24 24 23.407 24 22.6754V1.32457C24 0.593039 23.407 0 22.6754 0Z" fill="#4267B2"/>
</svg>
